<svg width="238" height="41" viewBox="0 0 238 41" fill="none" xmlns="http://www.w3.org/2000/svg">
<path d="M40 40V0H18.4L0 18.407V40.007L40 40Z" fill="#2F2722"/>
<path fill-rule="evenodd" clip-rule="evenodd" d="M19.311 26.541V38.621H11.035V23.113L23.114 11.034H38.621V19.307H26.542L19.311 26.541Z" fill="#D62727"/>
<path fill-rule="evenodd" clip-rule="evenodd" d="M9.656 22.407V38.621H1.38V18.975L18.98 1.375H38.621V9.651H22.404L9.656 22.407Z" fill="#FFD43E"/>
<path fill-rule="evenodd" clip-rule="evenodd" d="M28.966 30.679V38.62H20.69V27.251L27.252 20.689H38.621V28.965H30.68L28.966 30.679Z" fill="#EA721B"/>
<path d="M138.838 14.296V32.453H144.197V14.296H138.838Z" fill="#2F2722"/>
<path d="M138.659 6.10699V11.875H144.375V6.10699H138.659Z" fill="#2F2722"/>
<path fill-rule="evenodd" clip-rule="evenodd" d="M158.864 32.807C157.375 32.8822 155.903 32.4562 154.684 31.597C153.965 31.0524 153.418 30.3108 153.112 29.462V39.751H147.753V14.296H153.004V17.207C153.389 16.3426 154.024 15.6131 154.827 15.112C156.125 14.3429 157.605 13.937 159.114 13.937C160.623 13.937 162.103 14.3429 163.401 15.112C164.632 15.8901 165.603 17.0184 166.188 18.352C166.887 19.9062 167.229 21.5974 167.188 23.301C167.229 25.0314 166.875 26.7482 166.152 28.321C165.521 29.677 164.517 30.8254 163.258 31.632C161.937 32.4382 160.411 32.8462 158.864 32.807ZM157.364 28.535C157.945 28.5538 158.522 28.442 159.054 28.2079C159.586 27.9737 160.059 27.6231 160.437 27.182C161.286 26.0873 161.706 24.7197 161.616 23.337C161.711 21.959 161.276 20.5967 160.401 19.528C160.002 19.1087 159.521 18.7755 158.988 18.549C158.455 18.3224 157.882 18.2073 157.303 18.2107C156.724 18.214 156.152 18.3358 155.621 18.5686C155.091 18.8013 154.614 19.1401 154.22 19.564C153.367 20.643 152.947 22.0009 153.041 23.373C152.951 24.7557 153.371 26.1233 154.22 27.218C154.618 27.6513 155.105 27.9933 155.647 28.2208C156.19 28.4483 156.775 28.5558 157.363 28.536L157.364 28.535Z" fill="#2F2722"/>
<path d="M170.577 31.207C172.489 32.3655 174.705 32.9229 176.937 32.807C179.005 32.9336 181.062 32.4241 182.831 31.347C183.506 30.8882 184.054 30.2653 184.423 29.5368C184.792 28.8083 184.969 27.998 184.939 27.182C184.959 25.8306 184.445 24.5258 183.51 23.55C182.397 22.4072 180.943 21.6575 179.366 21.414L176.079 20.737C175.418 20.6249 174.779 20.4085 174.186 20.096C174.01 19.9878 173.865 19.836 173.764 19.6552C173.664 19.4744 173.612 19.2707 173.614 19.064C173.608 18.8295 173.669 18.598 173.789 18.3965C173.909 18.195 174.084 18.0315 174.293 17.925C174.958 17.5988 175.697 17.4517 176.436 17.498C177.276 17.4526 178.113 17.6248 178.866 17.998C179.133 18.1304 179.364 18.3262 179.538 18.5683C179.713 18.8104 179.825 19.0915 179.866 19.387H184.654C184.606 18.5829 184.367 17.8018 183.957 17.1084C183.547 16.4151 182.978 15.8294 182.296 15.4C180.569 14.3465 178.564 13.8377 176.544 13.94C174.539 13.8232 172.549 14.3486 170.863 15.44C170.206 15.8958 169.676 16.51 169.32 17.2257C168.964 17.9414 168.794 18.7354 168.827 19.534C168.807 20.2036 168.935 20.8694 169.2 21.4844C169.465 22.0995 169.862 22.6489 170.363 23.094C171.763 24.1624 173.409 24.8603 175.15 25.123L178.08 25.728C178.66 25.8068 179.212 26.0269 179.687 26.369C179.842 26.4907 179.965 26.6482 180.046 26.8279C180.127 27.0076 180.164 27.2042 180.152 27.401C180.158 27.6817 180.088 27.9587 179.95 28.203C179.811 28.4473 179.61 28.6497 179.366 28.789C178.61 29.1523 177.773 29.3119 176.937 29.252C175.925 29.302 174.917 29.0938 174.007 28.647C173.676 28.452 173.395 28.1837 173.184 27.8628C172.974 27.5419 172.839 27.1769 172.792 26.796H168.005C168.054 27.6823 168.313 28.5443 168.76 29.3111C169.207 30.0779 169.83 30.7277 170.577 31.207Z" fill="#2F2722"/>
<path d="M208.061 14.296H213.313V17.607C213.856 16.6301 214.613 15.7893 215.528 15.148C216.736 14.3212 218.174 13.8974 219.637 13.937C220.446 13.8866 221.256 14.0027 222.018 14.2779C222.78 14.5531 223.477 14.9816 224.067 15.537C224.613 16.0735 225.037 16.7216 225.31 17.437C225.86 16.5198 226.607 15.7363 227.497 15.143C228.769 14.312 230.265 13.8895 231.784 13.932C232.596 13.8601 233.413 13.9644 234.181 14.2377C234.948 14.5111 235.648 14.947 236.231 15.5157C236.815 16.0844 237.269 16.7725 237.562 17.5328C237.855 18.2931 237.98 19.1078 237.929 19.921V32.453H232.57V20.917C232.603 20.5444 232.553 20.1691 232.423 19.8182C232.293 19.4674 232.087 19.1497 231.82 18.888C231.255 18.4058 230.524 18.1633 229.783 18.212C229.046 18.2057 228.32 18.3896 227.675 18.746C227.055 19.0793 226.546 19.5868 226.211 20.206C225.839 20.8807 225.654 21.6427 225.675 22.413V32.453H220.316V20.917C220.349 20.5443 220.299 20.1689 220.169 19.818C220.039 19.4671 219.833 19.1494 219.565 18.888C219.001 18.404 218.271 18.1596 217.529 18.207C216.792 18.2005 216.066 18.3845 215.421 18.741C214.801 19.0745 214.292 19.582 213.956 20.201C213.584 20.8759 213.399 21.6377 213.42 22.408V32.448H208.061V14.296Z" fill="#2F2722"/>
<path d="M192.829 32.807C191.668 32.8384 190.52 32.5555 189.506 31.988C188.624 31.4427 187.908 30.6672 187.434 29.745C186.95 28.7596 186.705 27.6738 186.72 26.576V14.295H192.079V25.545C192.048 25.95 192.098 26.3572 192.227 26.7424C192.356 27.1277 192.56 27.4832 192.829 27.788C193.112 28.0481 193.445 28.2484 193.807 28.3769C194.169 28.5055 194.553 28.5596 194.937 28.536C195.678 28.5541 196.41 28.3635 197.048 27.9858C197.686 27.6081 198.204 27.0585 198.545 26.4C198.934 25.6788 199.131 24.8694 199.117 24.05V14.295H204.476V32.453H199.229V29.126C198.67 30.1059 197.901 30.9501 196.978 31.598C195.757 32.4285 194.305 32.8517 192.829 32.807Z" fill="#2F2722"/>
<path fill-rule="evenodd" clip-rule="evenodd" d="M126.706 32.807C124.875 32.8455 123.061 32.4424 121.419 31.632C119.956 30.861 118.733 29.7033 117.882 28.285C117.029 26.7665 116.597 25.0482 116.629 23.307C116.589 21.5858 117.022 19.8866 117.88 18.394C118.734 16.9967 119.958 15.8631 121.417 15.119C123.059 14.3087 124.873 13.9056 126.704 13.944C128.536 13.9003 130.351 14.3036 131.992 15.119C133.46 15.8501 134.687 16.9866 135.529 18.394C136.386 19.8869 136.819 21.5859 136.779 23.307C136.812 25.0544 136.367 26.7777 135.493 28.291C134.655 29.7193 133.428 30.88 131.956 31.638C130.327 32.4486 128.525 32.8499 126.706 32.807ZM126.706 28.607C127.503 28.6175 128.285 28.3947 128.957 27.966C129.662 27.5239 130.23 26.8954 130.6 26.15C131.026 25.2495 131.234 24.2617 131.208 23.266C131.253 22.5803 131.159 21.8926 130.932 21.244C130.705 20.5955 130.349 19.9996 129.886 19.492C129.482 19.0545 128.989 18.7077 128.441 18.4744C127.893 18.2412 127.302 18.1269 126.706 18.139C126.106 18.129 125.51 18.2442 124.956 18.4771C124.403 18.7101 123.904 19.0557 123.491 19.492C122.583 20.5322 122.121 21.8879 122.205 23.266C122.179 24.2616 122.387 25.2494 122.812 26.15C123.176 26.8879 123.732 27.5149 124.42 27.966C125.106 28.392 125.899 28.6143 126.706 28.607Z" fill="#2F2722"/>
<path fill-rule="evenodd" clip-rule="evenodd" d="M98.556 38.507C100.411 39.6449 102.563 40.2021 104.737 40.107C107.318 40.2541 109.862 39.4429 111.882 37.829C112.752 37.0646 113.438 36.1138 113.89 35.0474C114.341 33.9811 114.546 32.8266 114.49 31.67V14.296H109.238V17.401C108.924 16.4952 108.338 15.7089 107.559 15.15C106.337 14.297 104.868 13.8713 103.379 13.939C101.837 13.906 100.317 14.3002 98.985 15.078C97.7362 15.8483 96.7324 16.9582 96.091 18.278C95.3709 19.7884 95.016 21.4471 95.055 23.12C95.0158 24.7662 95.3581 26.3991 96.055 27.891C96.6708 29.1863 97.636 30.2838 98.842 31.06C100.13 31.8138 101.601 32.1947 103.093 32.16C104.592 32.2128 106.073 31.8162 107.345 31.021C108.144 30.4944 108.767 29.7393 109.131 28.854V31.733C109.176 32.2661 109.099 32.8023 108.908 33.3018C108.716 33.8012 108.414 34.2508 108.024 34.617C106.986 35.3211 105.737 35.6479 104.487 35.543C103.662 35.5665 102.84 35.4461 102.057 35.187C101.795 35.1075 101.551 34.9748 101.342 34.7973C101.133 34.6197 100.963 34.4011 100.842 34.155H95.769C95.8949 35.0376 96.2089 35.8829 96.6897 36.6338C97.1706 37.3846 97.807 38.0234 98.556 38.507ZM108.029 26.792C107.64 27.2148 107.163 27.5483 106.633 27.7696C106.103 27.9909 105.53 28.0947 104.956 28.074C104.371 28.0949 103.788 27.9914 103.246 27.7704C102.704 27.5494 102.216 27.2159 101.812 26.792C100.963 25.7532 100.542 24.4303 100.633 23.092C100.546 21.7425 100.966 20.4092 101.812 19.354C102.212 18.9375 102.692 18.6061 103.223 18.3798C103.754 18.1534 104.325 18.0367 104.903 18.0367C105.48 18.0367 106.051 18.1534 106.582 18.3798C107.113 18.6061 107.593 18.9375 107.993 19.354C108.864 20.3823 109.3 21.7096 109.208 23.054C109.295 24.4035 108.875 25.7368 108.029 26.792Z" fill="#2F2722"/>
<path fill-rule="evenodd" clip-rule="evenodd" d="M83.965 32.807C82.1336 32.8454 80.3198 32.4424 78.677 31.632C77.2142 30.8607 75.9908 29.7031 75.14 28.285C74.2889 26.7661 73.8574 25.0479 73.89 23.307C73.8504 21.5858 74.283 19.8867 75.141 18.394C75.9952 16.9968 77.2194 15.8633 78.678 15.119C80.3208 14.3087 82.1346 13.9056 83.966 13.944C85.798 13.9002 87.613 14.3035 89.254 15.119C90.722 15.8498 91.9496 16.9865 92.791 18.394C93.6487 19.8868 94.081 21.5859 94.041 23.307C94.0743 25.0545 93.6297 26.7778 92.755 28.291C91.9171 29.7194 90.6904 30.8802 89.218 31.638C87.5881 32.449 85.785 32.8503 83.965 32.807ZM83.965 28.607C84.7618 28.6175 85.5443 28.3947 86.216 27.966C86.9204 27.5235 87.489 26.8951 87.859 26.15C88.2842 25.2494 88.4921 24.2616 88.466 23.266C88.5113 22.5803 88.4175 21.8926 88.1903 21.2441C87.9632 20.5955 87.6073 19.9996 87.144 19.492C86.7398 19.0544 86.2473 18.7076 85.6992 18.4744C85.151 18.2411 84.5596 18.1268 83.964 18.139C83.3636 18.1291 82.7676 18.2443 82.2141 18.4772C81.6606 18.7101 81.1617 19.0557 80.749 19.492C79.8414 20.5324 79.3795 21.888 79.463 23.266C79.4369 24.2616 79.6448 25.2494 80.07 26.15C80.4346 26.8884 80.9901 27.5158 81.679 27.967C82.365 28.3925 83.1578 28.6145 83.965 28.607Z" fill="#2F2722"/>
<path d="M55.929 6.81897V32.453H73.792V28.253H61.429V6.81897H55.929Z" fill="#2F2722"/>
</svg>
