<svg width="31" height="31" viewBox="0 0 31 31" fill="none" xmlns="http://www.w3.org/2000/svg">
<path d="M29.803 21.977L23.203 19.147C22.9209 19.0267 22.6073 19.0014 22.3095 19.0748C22.0118 19.1482 21.7459 19.3164 21.552 19.554L18.628 23.127C14.0368 20.9635 10.3417 17.2696 8.17699 12.679L11.75 9.75497C11.9881 9.56146 12.1567 9.2956 12.2301 8.99767C12.3036 8.69974 12.2779 8.386 12.157 8.10398L9.32699 1.50098C9.19453 1.19672 8.95997 0.948273 8.66382 0.798556C8.36767 0.648839 8.02854 0.607251 7.70499 0.680975L1.57699 2.09598C1.26458 2.16731 0.985638 2.34258 0.785809 2.59309C0.585981 2.8436 0.477101 3.15453 0.47699 3.47497C0.476596 7.06766 1.18394 10.6252 2.55861 13.9445C3.93329 17.2638 5.94838 20.2798 8.48879 22.8202C11.0292 25.3606 14.0452 27.3757 17.3645 28.7504C20.6837 30.125 24.2413 30.8324 27.834 30.832C28.1546 30.8321 28.4658 30.7233 28.7165 30.5235C28.9672 30.3236 29.1426 30.0446 29.214 29.732L30.629 23.6C30.702 23.275 30.6594 22.9348 30.5087 22.6379C30.3579 22.3409 30.1084 22.1058 29.803 21.973V21.977Z" fill="#EA721B"/>
</svg>
